<svg width="42" height="57" viewBox="0 0 42 57" fill="none" xmlns="http://www.w3.org/2000/svg">
<path d="M30.9056 56.44L29.8875 57.5415L30.3186 57.94H30.9056V56.44ZM0.785625 28.6L-0.232524 27.4985L-1.42427 28.6L-0.232523 29.7015L0.785625 28.6ZM30.9056 0.759995V-0.740005H30.3186L29.8875 -0.341537L30.9056 0.759995ZM41.5856 0.759995L42.6016 1.86354L45.4296 -0.740005H41.5856V0.759995ZM11.3456 28.6L10.3297 27.4965L9.13098 28.6L10.3297 29.7035L11.3456 28.6ZM41.5856 56.44V57.94H45.4296L42.6016 55.3364L41.5856 56.44ZM31.9238 55.3385L1.80377 27.4985L-0.232523 29.7015L29.8875 57.5415L31.9238 55.3385ZM1.80377 29.7015L31.9238 1.86153L29.8875 -0.341537L-0.232524 27.4985L1.80377 29.7015ZM30.9056 2.25999H41.5856V-0.740005H30.9056V2.25999ZM40.5697 -0.343555L10.3297 27.4965L12.3616 29.7035L42.6016 1.86354L40.5697 -0.343555ZM10.3297 29.7035L40.5697 57.5435L42.6016 55.3364L12.3616 27.4965L10.3297 29.7035ZM41.5856 54.94H30.9056V57.94H41.5856V54.94Z" fill="black"/>
</svg>
