<svg width="42" height="57" viewBox="0 0 42 57" fill="none" xmlns="http://www.w3.org/2000/svg">
<path d="M11.0944 0.559998L12.1125 -0.541527L11.6814 -0.940002H11.0944V0.559998ZM41.2144 28.4L42.2325 29.5015L43.4243 28.4L42.2325 27.2985L41.2144 28.4ZM11.0944 56.24V57.74H11.6814L12.1125 57.3415L11.0944 56.24ZM0.414375 56.24L-0.601589 55.1365L-3.42958 57.74H0.414375V56.24ZM30.6544 28.4L31.6703 29.5035L32.869 28.4L31.6703 27.2965L30.6544 28.4ZM0.414375 0.559998V-0.940002H-3.42958L-0.601589 1.66355L0.414375 0.559998ZM10.0762 1.66153L40.1962 29.5015L42.2325 27.2985L12.1125 -0.541527L10.0762 1.66153ZM40.1962 27.2985L10.0762 55.1385L12.1125 57.3415L42.2325 29.5015L40.1962 27.2985ZM11.0944 54.74H0.414375V57.74H11.0944V54.74ZM1.43034 57.3436L31.6703 29.5035L29.6384 27.2965L-0.601589 55.1365L1.43034 57.3436ZM31.6703 27.2965L1.43034 -0.543549L-0.601589 1.66355L29.6384 29.5035L31.6703 27.2965ZM0.414375 2.06H11.0944V-0.940002H0.414375V2.06Z" fill="black"/>
</svg>
